<svg width="96" height="96" viewBox="0 0 96 96" fill="none" xmlns="http://www.w3.org/2000/svg">
<g clip-path="url(#clip0_52_2361)">
<path d="M64.4102 70.3791C63.7703 70.3791 63.1849 69.9517 63.0117 69.3043C62.805 68.5314 63.264 67.7374 64.0369 67.5306C70.5863 65.7789 75.7446 62.5864 79.3682 58.0414C82.2758 54.3945 84.2288 49.8527 85.173 44.5417C86.8077 35.3484 84.8271 26.9548 84.8069 26.8712C84.6192 26.0938 85.0969 25.311 85.8743 25.1229C86.6519 24.9343 87.4341 25.4117 87.6227 26.1889C87.7107 26.5515 89.758 35.1802 88.0416 44.9582C86.4325 54.1254 81.0917 65.9687 64.7852 70.3296C64.66 70.3631 64.5342 70.3791 64.4102 70.3791Z" fill="#83B832"/>
<path d="M88.1638 15.8272C88.9156 20.547 88.1838 27.0872 86.0501 27.4271C83.9161 27.7671 81.1882 21.7781 80.4363 17.0584C79.6844 12.3386 81.1933 10.6755 83.327 10.3356C85.4609 9.99562 87.4119 11.1075 88.1638 15.8272Z" fill="#BDEB73"/>
<path d="M86.0496 27.4262C85.5531 27.5059 85.023 27.2413 84.4924 26.7287C85.5454 24.5076 85.8088 19.9826 85.2486 16.4661C84.6533 12.7337 83.3083 11.2584 81.7153 10.9719C82.1792 10.6309 82.7278 10.4297 83.3271 10.3354C85.461 9.99656 87.4123 11.1077 88.1642 15.8269C88.9157 20.5477 88.1835 27.0872 86.0496 27.4262Z" fill="#9AD63B"/>
<path d="M86.5833 45.321C85.5338 45.8434 83.7601 44.6406 82.0175 42.7492C80.5478 41.1521 79.099 39.0666 78.1235 37.1089C75.9927 32.829 76.9343 30.792 78.869 29.8279C80.7486 28.8924 82.8747 29.3173 84.9494 33.2722C85.0103 33.3849 85.0686 33.5008 85.1283 33.621C87.2577 37.8986 88.5179 44.3569 86.5833 45.321Z" fill="#8EC737"/>
<path d="M86.5831 45.321C85.5337 45.8434 83.76 44.6406 82.0173 42.7493C82.0473 41.9357 82.1739 41.0333 82.3959 40.0459C82.8896 37.8454 83.8241 35.3803 84.9495 33.2721C85.0104 33.3848 85.0687 33.5006 85.1283 33.6208C87.2576 37.8986 88.5178 44.3569 86.5831 45.321Z" fill="#83B832"/>
<path d="M87.7427 33.7151C85.3074 37.8274 83.5824 44.1784 85.4417 45.2794C87.3009 46.3804 92.0404 41.8145 94.4756 37.7023C96.9109 33.59 96.1194 31.4885 94.2602 30.3875C92.4009 29.2864 90.1777 29.6029 87.7427 33.7151Z" fill="#BDEB73"/>
<path d="M94.4759 37.7027C92.0401 41.8138 87.3019 46.38 85.441 45.2792C85.0073 45.024 84.7703 44.4823 84.6897 43.7511C86.9183 42.7331 90.0319 39.4009 91.8548 36.3236C93.7743 33.0808 93.6889 31.0896 92.6556 29.8521C93.2159 29.8912 93.7525 30.0859 94.2606 30.3868C96.1195 31.4893 96.9102 33.5895 94.4759 37.7027Z" fill="#9AD63B"/>
<path d="M78.4355 63.4442C77.2646 63.5107 76.1107 61.704 75.2565 59.2774C74.535 57.2316 74.0282 54.7414 73.9037 52.5587C73.6338 47.7879 75.3039 46.2851 77.4611 46.1636C79.56 46.0455 81.3461 47.2755 81.6909 51.7307C81.7012 51.8574 81.7093 51.9857 81.7168 52.1179C81.9845 56.8899 80.5931 63.321 78.4355 63.4442Z" fill="#8EC737"/>
<path d="M78.4354 63.4442C77.2645 63.5107 76.1106 61.704 75.2563 59.2774C75.6034 58.5409 76.0752 57.7627 76.6695 56.943C77.9933 55.1156 79.8246 53.2221 81.6908 51.7307C81.7011 51.8574 81.7092 51.9857 81.7167 52.1179C81.9844 56.8899 80.593 63.321 78.4354 63.4442Z" fill="#83B832"/>
<path d="M84.0812 53.2373C80.2207 56.0548 76.1295 61.2094 77.4032 62.9548C78.677 64.7003 84.8338 62.3754 88.694 59.5579C92.5545 56.7403 92.6567 54.4973 91.3828 52.7518C90.1091 51.0064 87.9414 50.4197 84.0812 53.2373Z" fill="#BDEB73"/>
<path d="M88.6943 59.5571C84.8333 62.375 78.6775 64.6997 77.4033 62.9544C77.2066 62.6852 77.138 62.3329 77.1779 61.9209C79.6683 61.643 83.4625 59.9225 86.1473 57.9643C89.9067 55.2208 90.1023 53.0216 88.9341 51.2949C90.0003 51.3752 90.7893 51.9373 91.3821 52.7512C92.6566 54.4965 92.555 56.7412 88.6943 59.5571Z" fill="#9AD63B"/>
<path d="M31.5898 70.3791C31.4658 70.3791 31.34 70.3629 31.2146 70.3294C14.9083 65.9687 9.56751 54.1254 7.95839 44.9582C6.2422 35.1802 8.28933 26.5515 8.37726 26.1889C8.56608 25.4115 9.34851 24.9332 10.1268 25.1227C10.9042 25.3114 11.3816 26.0944 11.193 26.8719C11.1648 26.9899 9.1957 35.3676 10.827 44.5417C11.7712 49.8527 13.7244 54.3945 16.6318 58.0414C20.2554 62.5862 25.4137 65.7789 31.9631 67.5306C32.736 67.7374 33.195 68.5314 32.9883 69.3043C32.8153 69.9517 32.2297 70.3791 31.5898 70.3791Z" fill="#83B832"/>
<path d="M7.83643 15.8272C7.08455 20.547 7.81636 27.0872 9.95011 27.4271C12.0839 27.7671 14.812 21.7781 15.5639 17.0584C16.3157 12.3386 14.8069 10.6755 12.6732 10.3356C10.5392 9.99562 8.5883 11.1075 7.83643 15.8272Z" fill="#BDEB73"/>
<path d="M15.564 17.0591C14.8121 21.7785 12.0849 27.7667 9.9506 27.426C9.42654 27.3435 8.98666 26.8866 8.63379 26.1722C10.3445 24.4269 12.0334 20.148 12.6 16.5917C13.1672 13.0277 12.446 11.2056 11.1401 10.3843C11.6287 10.2559 12.1451 10.2514 12.6731 10.335C14.8074 10.6759 16.3155 12.3381 15.564 17.0591Z" fill="#9AD63B"/>
<path d="M9.41678 45.321C10.4662 45.8434 12.24 44.6406 13.9826 42.7492C15.4522 41.1521 16.901 39.0666 17.8766 37.1089C20.0073 32.829 19.0657 30.792 17.1311 29.8279C15.2514 28.8924 13.1253 29.3173 11.0507 33.2722C10.9897 33.3849 10.9314 33.5008 10.8718 33.621C8.74234 37.8986 7.48215 44.3569 9.41678 45.321Z" fill="#8EC737"/>
<path d="M17.8764 37.1089C16.901 39.0667 15.452 41.1523 13.9824 42.7492C12.2398 44.6405 10.466 45.8434 9.4166 45.321C9.13197 45.1789 8.91447 44.9154 8.76147 44.5599C9.48091 44.0831 10.262 43.3783 11.0366 42.5383C12.5062 40.9412 13.955 38.8556 14.9306 36.8977C17.0274 32.6872 16.1486 30.6468 14.2783 29.6657C15.2628 29.2421 16.2268 29.3779 17.1307 29.8279C19.0655 30.792 20.0072 32.829 17.8764 37.1089Z" fill="#83B832"/>
<path d="M9.41679 45.321C10.4662 45.8434 12.24 44.6406 13.9826 42.7493C13.9526 41.9357 13.826 41.0333 13.604 40.0459C13.1103 37.8454 12.1758 35.3803 11.0505 33.2721C10.9895 33.3848 10.9312 33.5006 10.8716 33.6208C8.74235 37.8986 7.48216 44.3569 9.41679 45.321Z" fill="#83B832"/>
<path d="M8.25737 33.7151C10.6926 37.8274 12.4176 44.1784 10.5584 45.2794C8.69912 46.3804 3.95968 41.8145 1.52443 37.7023C-0.910816 33.59 -0.119379 31.4885 1.73987 30.3875C3.59912 29.2864 5.82231 29.6029 8.25737 33.7151Z" fill="#BDEB73"/>
<path d="M10.5588 45.2792C10.0904 45.5559 9.43982 45.4746 8.68907 45.1303C9.01964 42.7537 7.55226 38.1816 5.65251 34.9738C3.92001 32.0497 2.29757 31.0461 0.835449 31.1057C1.08989 30.8263 1.39607 30.5897 1.73901 30.387C3.59807 29.2864 5.82239 29.6036 8.25614 33.7149C10.6925 37.8277 12.4179 44.1786 10.5588 45.2792Z" fill="#9AD63B"/>
<path d="M17.5646 63.4442C18.7356 63.5107 19.8894 61.704 20.7437 59.2774C21.4652 57.2316 21.972 54.7414 22.0965 52.5587C22.3663 47.7879 20.6963 46.2851 18.5391 46.1636C16.4402 46.0455 14.6541 47.2755 14.3093 51.7307C14.2989 51.8574 14.2909 51.9857 14.2834 52.1179C14.0156 56.8899 15.4071 63.321 17.5646 63.4442Z" fill="#8EC737"/>
<path d="M22.0965 52.5585C21.972 54.7412 21.4652 57.2315 20.7437 59.2772C19.8895 61.7038 18.7354 63.5106 17.5646 63.444C17.0132 63.4125 16.5118 62.9683 16.075 62.2457C16.6926 61.4966 17.2656 60.3305 17.743 58.9719C18.4645 56.9263 18.9713 54.4359 19.0958 52.2532C19.2917 48.7969 18.4675 47.0544 17.1793 46.3129C17.6076 46.1797 18.0653 46.1374 18.5389 46.1634C20.6961 46.2849 22.3663 47.7877 22.0965 52.5585Z" fill="#83B832"/>
<path d="M17.5646 63.4442C18.7356 63.5107 19.8894 61.704 20.7437 59.2774C20.3966 58.5409 19.9249 57.7627 19.3305 56.943C18.0068 55.1156 16.1754 53.2221 14.3093 51.7307C14.2989 51.8574 14.2909 51.9857 14.2834 52.1179C14.0156 56.8899 15.4071 63.321 17.5646 63.4442Z" fill="#83B832"/>
<path d="M11.9189 53.2373C15.7794 56.0548 19.8706 61.2094 18.5969 62.9548C17.3231 64.7003 11.1663 62.3754 7.30605 59.5579C3.44561 56.7403 3.34343 54.4973 4.6173 52.7518C5.89118 51.0064 8.05868 50.4197 11.9189 53.2373Z" fill="#BDEB73"/>
<path d="M18.597 62.9546C18.1898 63.5128 17.2826 63.6555 16.111 63.4969C16.1498 61.3082 12.5843 57.0367 9.19783 54.5659C7.34439 53.2125 5.88152 52.6459 4.7207 52.614C6.00658 50.9782 8.16095 50.4945 11.9185 53.2384C15.7789 56.0542 19.8713 61.2092 18.597 62.9546Z" fill="#9AD63B"/>
<path d="M66.9159 63.8767V76.155H30.5338V63.8767C30.5338 61.6159 32.3657 59.784 34.6265 59.784H40.5393V38.6227L39.8692 39.0714C37.9923 40.3273 35.4493 39.8237 34.1934 37.9468L29.6403 31.1445C28.3826 29.2656 28.886 26.7227 30.765 25.4668L44.1716 16.4917C47.1103 14.5267 51.0365 14.6404 53.8852 16.9384C55.8347 18.5096 56.9102 20.9233 56.9102 23.4272V59.7838H62.823C65.084 59.784 66.9159 61.6157 66.9159 63.8767Z" fill="#FFB54E"/>
<path d="M66.9156 71.3724H30.5337V76.1548H66.9156V71.3724Z" fill="#FF9A1B"/>
<path d="M66.916 63.8767V76.155H62.3159V63.8767C62.3159 61.6177 60.4821 59.784 58.2231 59.784H62.8233C65.0841 59.784 66.916 61.6157 66.916 63.8767Z" fill="#FF9A1B"/>
<path d="M56.909 23.4872V59.7842H52.3102V23.4872C52.3102 20.9739 51.2538 18.5376 49.3051 16.9541C48.4272 16.2424 47.4477 15.738 46.4246 15.4391C48.9378 14.7045 51.7353 15.1943 53.906 16.9541C55.8549 18.5378 56.909 20.9741 56.909 23.4872Z" fill="#FF9A1B"/>
<path d="M58.7806 31.3557C66.0662 31.3557 71.9724 25.4496 71.9724 18.1639C71.9724 10.8783 66.0662 4.9722 58.7806 4.9722C51.495 4.9722 45.5889 10.8783 45.5889 18.1639C45.5889 25.4496 51.495 31.3557 58.7806 31.3557Z" fill="#8ECBFD"/>
<path d="M71.9727 18.1631C71.9727 25.4494 66.0657 31.3562 58.7815 31.3562C58.1545 31.3562 57.5375 31.3131 56.9341 31.2268C63.3445 30.3276 68.2778 24.8222 68.2778 18.1629C68.2778 11.5056 63.3445 6.00037 56.9341 5.10112C57.5375 5.01487 58.1547 4.97174 58.7815 4.97174C66.0657 4.97193 71.9727 10.8787 71.9727 18.1631Z" fill="#65BAFC"/>
<path d="M66.018 14.1789H65.1157L65.4602 13.3453C65.7658 12.6058 65.4142 11.7587 64.6747 11.4531C63.9356 11.148 63.0881 11.499 62.7825 12.2387L61.9807 14.1788H58.8744L59.2189 13.3451C59.5245 12.6056 59.1729 11.7585 58.4334 11.4529C57.6941 11.1478 56.847 11.4988 56.5412 12.2385L55.7394 14.1786H53.3066C52.5065 14.1786 51.858 14.8271 51.858 15.6272C51.858 16.4274 52.5065 17.0758 53.3066 17.0758H54.5419L53.643 19.251H51.5434C50.7433 19.251 50.0947 19.8996 50.0947 20.6996C50.0947 21.4999 50.7433 22.1483 51.5434 22.1483H52.4456L52.1012 22.9819C51.7955 23.7214 52.1471 24.5685 52.8866 24.8741C53.0675 24.9488 53.255 24.9844 53.4394 24.9844C54.0082 24.9844 54.5479 24.6471 54.7787 24.0885L55.5804 22.1484H58.6867L58.3423 22.9821C58.0367 23.7216 58.3882 24.5687 59.1277 24.8743C59.3087 24.9489 59.4962 24.9846 59.6805 24.9846C60.2494 24.9846 60.789 24.6473 61.0198 24.0887L61.8215 22.1486H64.2544C65.0544 22.1486 65.703 21.5001 65.703 20.7C65.703 19.8998 65.0544 19.2514 64.2544 19.2514H63.0191L63.918 17.0762H66.0176C66.8177 17.0762 67.4662 16.4276 67.4662 15.6276C67.4666 14.8273 66.818 14.1789 66.018 14.1789ZM59.8845 19.2514H56.7782L57.677 17.0762H60.7834L59.8845 19.2514Z" fill="#DAEDFF"/>
<path d="M71.567 76.1137V85.2827H24.4329V76.1137C24.4329 75.0107 25.3263 74.1154 26.4294 74.1154H69.5705C70.6735 74.1154 71.567 75.0107 71.567 76.1137Z" fill="#FFCE8B"/>
<path d="M71.567 79.2289H24.4329V85.2827H71.567V79.2289Z" fill="#FFB54E"/>
<path d="M71.5669 76.1135V85.2829H66.9739V76.1135C66.9739 75.0112 66.0794 74.1167 64.9771 74.1167H69.57C70.6724 74.1165 71.5669 75.0112 71.5669 76.1135Z" fill="#FFB54E"/>
<path d="M79.695 91.0282H16.305C15.2021 91.0282 14.3081 90.1342 14.3081 89.0313V83.9696C14.3081 82.8667 15.2021 81.9727 16.305 81.9727H79.695C80.7979 81.9727 81.6919 82.8667 81.6919 83.9696V89.0313C81.692 90.1342 80.7979 91.0282 79.695 91.0282Z" fill="#FFE8CA"/>
<path d="M81.6918 83.9689V89.0312C81.6918 90.1335 80.7972 91.028 79.6949 91.028H75.2856C76.388 91.028 77.2825 90.1335 77.2825 89.0312V83.9689C77.2825 82.8666 76.388 81.972 75.2856 81.972H79.6949C80.7972 81.972 81.6918 82.8666 81.6918 83.9689Z" fill="#FFCE8B"/>
</g>
<defs>
<clipPath id="clip0_52_2361">
<rect width="96" height="96" fill="white"/>
</clipPath>
</defs>
</svg>
